<svg width="100" height="100" viewBox="0 0 100 100" fill="none" xmlns="http://www.w3.org/2000/svg">
<rect width="100" height="100" fill="white"/>
<rect width="100" height="100" fill="#17A2B8"/>
<mask id="path-1-outside-1_7_6" maskUnits="userSpaceOnUse" x="16" y="7" width="65" height="88" fill="black">
<rect fill="white" x="16" y="7" width="65" height="88"/>
<path d="M44.1383 93.68C39.4183 93.68 34.9783 92.52 30.8183 90.2C26.7383 87.8 23.4583 84.32 20.9783 79.76C18.4983 75.2 17.2583 69.68 17.2583 63.2V61.28C17.2583 54.8 18.4983 49.28 20.9783 44.72C23.4583 40.16 26.7383 36.72 30.8183 34.4C34.8983 32 39.3383 30.8 44.1383 30.8C47.7383 30.8 50.7383 31.24 53.1383 32.12C55.6183 32.92 57.6183 33.96 59.1383 35.24C60.6583 36.52 61.8183 37.88 62.6183 39.32H64.7783V7.99999H79.8983V92H65.0183V84.8H62.8583C61.4983 87.04 59.3783 89.08 56.4983 90.92C53.6983 92.76 49.5783 93.68 44.1383 93.68ZM48.6983 80.48C53.3383 80.48 57.2183 79 60.3383 76.04C63.4583 73 65.0183 68.6 65.0183 62.84V61.64C65.0183 55.88 63.4583 51.52 60.3383 48.56C57.2983 45.52 53.4183 44 48.6983 44C44.0583 44 40.1783 45.52 37.0583 48.56C33.9383 51.52 32.3783 55.88 32.3783 61.64V62.84C32.3783 68.6 33.9383 73 37.0583 76.04C40.1783 79 44.0583 80.48 48.6983 80.48Z"/>
</mask>
<path d="M44.1383 93.68C39.4183 93.68 34.9783 92.52 30.8183 90.2C26.7383 87.8 23.4583 84.32 20.9783 79.76C18.4983 75.2 17.2583 69.68 17.2583 63.2V61.28C17.2583 54.8 18.4983 49.28 20.9783 44.72C23.4583 40.16 26.7383 36.72 30.8183 34.4C34.8983 32 39.3383 30.8 44.1383 30.8C47.7383 30.8 50.7383 31.24 53.1383 32.12C55.6183 32.92 57.6183 33.96 59.1383 35.24C60.6583 36.52 61.8183 37.88 62.6183 39.32H64.7783V7.99999H79.8983V92H65.0183V84.8H62.8583C61.4983 87.04 59.3783 89.08 56.4983 90.92C53.6983 92.76 49.5783 93.68 44.1383 93.68ZM48.6983 80.48C53.3383 80.48 57.2183 79 60.3383 76.04C63.4583 73 65.0183 68.6 65.0183 62.84V61.64C65.0183 55.88 63.4583 51.52 60.3383 48.56C57.2983 45.52 53.4183 44 48.6983 44C44.0583 44 40.1783 45.52 37.0583 48.56C33.9383 51.52 32.3783 55.88 32.3783 61.64V62.84C32.3783 68.6 33.9383 73 37.0583 76.04C40.1783 79 44.0583 80.48 48.6983 80.48Z" fill="white"/>
<path d="M30.8183 90.2L30.3113 91.0619L30.3212 91.0678L30.3312 91.0734L30.8183 90.2ZM20.9783 79.76L21.8568 79.2822L21.8568 79.2822L20.9783 79.76ZM20.9783 44.72L21.8568 45.1978L21.8568 45.1978L20.9783 44.72ZM30.8183 34.4L31.3126 35.2693L31.319 35.2657L31.3253 35.2619L30.8183 34.4ZM53.1383 32.12L52.794 33.0589L52.8125 33.0657L52.8313 33.0717L53.1383 32.12ZM59.1383 35.24L58.4941 36.0049L58.4941 36.0049L59.1383 35.24ZM62.6183 39.32L61.7441 39.8056L62.0299 40.32H62.6183V39.32ZM64.7783 39.32V40.32H65.7783V39.32H64.7783ZM64.7783 7.99999V6.99999H63.7783V7.99999H64.7783ZM79.8983 7.99999H80.8983V6.99999H79.8983V7.99999ZM79.8983 92V93H80.8983V92H79.8983ZM65.0183 92H64.0183V93H65.0183V92ZM65.0183 84.8H66.0183V83.8H65.0183V84.8ZM62.8583 84.8V83.8H62.2955L62.0035 84.281L62.8583 84.8ZM56.4983 90.92L55.9599 90.0772L55.9491 90.0843L56.4983 90.92ZM60.3383 76.04L61.0266 76.7655L61.0361 76.7562L60.3383 76.04ZM60.3383 48.56L59.6312 49.2671L59.6405 49.2764L59.65 49.2855L60.3383 48.56ZM37.0583 48.56L37.7466 49.2855L37.7561 49.2762L37.0583 48.56ZM37.0583 76.04L36.3604 76.7563L36.37 76.7655L37.0583 76.04ZM44.1383 93.68V92.68C39.5904 92.68 35.3179 91.5644 31.3054 89.3266L30.8183 90.2L30.3312 91.0734C34.6387 93.4756 39.2462 94.68 44.1383 94.68V93.68ZM30.8183 90.2L31.3253 89.3381C27.4166 87.0388 24.2587 83.6987 21.8568 79.2822L20.9783 79.76L20.0998 80.2378C22.6578 84.9413 26.06 88.5612 30.3113 91.0619L30.8183 90.2ZM20.9783 79.76L21.8568 79.2822C19.4739 74.9009 18.2583 69.5539 18.2583 63.2H17.2583H16.2583C16.2583 69.8061 17.5226 75.4991 20.0998 80.2378L20.9783 79.76ZM17.2583 63.2H18.2583V61.28H17.2583H16.2583V63.2H17.2583ZM17.2583 61.28H18.2583C18.2583 54.9261 19.4739 49.5791 21.8568 45.1978L20.9783 44.72L20.0998 44.2422C17.5226 48.9809 16.2583 54.6739 16.2583 61.28H17.2583ZM20.9783 44.72L21.8568 45.1978C24.2574 40.7836 27.4115 37.4876 31.3126 35.2693L30.8183 34.4L30.324 33.5307C26.0651 35.9524 22.6591 39.5364 20.0998 44.2422L20.9783 44.72ZM30.8183 34.4L31.3253 35.2619C35.2494 32.9537 39.5139 31.8 44.1383 31.8V30.8V29.8C39.1626 29.8 34.5472 31.0463 30.3113 33.5381L30.8183 34.4ZM44.1383 30.8V31.8C47.665 31.8 50.5393 32.2321 52.794 33.0589L53.1383 32.12L53.4825 31.1811C50.9373 30.2478 47.8115 29.8 44.1383 29.8V30.8ZM53.1383 32.12L52.8313 33.0717C55.2244 33.8437 57.099 34.83 58.4941 36.0049L59.1383 35.24L59.7824 34.4751C58.1376 33.09 56.0122 31.9963 53.4453 31.1683L53.1383 32.12ZM59.1383 35.24L58.4941 36.0049C59.9398 37.2223 61.014 38.4914 61.7441 39.8056L62.6183 39.32L63.4924 38.8344C62.6226 37.2686 61.3768 35.8177 59.7824 34.4751L59.1383 35.24ZM62.6183 39.32V40.32H64.7783V39.32V38.32H62.6183V39.32ZM64.7783 39.32H65.7783V7.99999H64.7783H63.7783V39.32H64.7783ZM64.7783 7.99999V8.99999H79.8983V7.99999V6.99999H64.7783V7.99999ZM79.8983 7.99999H78.8983V92H79.8983H80.8983V7.99999H79.8983ZM79.8983 92V91H65.0183V92V93H79.8983V92ZM65.0183 92H66.0183V84.8H65.0183H64.0183V92H65.0183ZM65.0183 84.8V83.8H62.8583V84.8V85.8H65.0183V84.8ZM62.8583 84.8L62.0035 84.281C60.7432 86.3568 58.7488 88.2955 55.9599 90.0773L56.4983 90.92L57.0367 91.7627C60.0078 89.8645 62.2534 87.7232 63.7131 85.319L62.8583 84.8ZM56.4983 90.92L55.9491 90.0843C53.3849 91.7693 49.4936 92.68 44.1383 92.68V93.68V94.68C49.663 94.68 54.0117 93.7507 57.0475 91.7557L56.4983 90.92ZM48.6983 80.48V81.48C53.5723 81.48 57.7053 79.9164 61.0265 76.7655L60.3383 76.04L59.65 75.3145C56.7313 78.0836 53.1043 79.48 48.6983 79.48V80.48ZM60.3383 76.04L61.0361 76.7562C64.4057 73.4731 66.0183 68.7793 66.0183 62.84H65.0183H64.0183C64.0183 68.4207 62.5109 72.5269 59.6404 75.3238L60.3383 76.04ZM65.0183 62.84H66.0183V61.64H65.0183H64.0183V62.84H65.0183ZM65.0183 61.64H66.0183C66.0183 55.7025 64.4063 51.041 61.0265 47.8345L60.3383 48.56L59.65 49.2855C62.5102 51.999 64.0183 56.0575 64.0183 61.64H65.0183ZM60.3383 48.56L61.0454 47.8529C57.7986 44.6061 53.655 43 48.6983 43V44V45C53.1816 45 56.798 46.4339 59.6312 49.2671L60.3383 48.56ZM48.6983 44V43C43.8163 43 39.6802 44.6091 36.3604 47.8438L37.0583 48.56L37.7561 49.2762C40.6764 46.4309 44.3002 45 48.6983 45V44ZM37.0583 48.56L36.37 47.8345C32.9902 51.041 31.3783 55.7025 31.3783 61.64H32.3783H33.3783C33.3783 56.0575 34.8863 51.999 37.7465 49.2855L37.0583 48.56ZM32.3783 61.64H31.3783V62.84H32.3783H33.3783V61.64H32.3783ZM32.3783 62.84H31.3783C31.3783 68.7793 32.9909 73.4731 36.3604 76.7562L37.0583 76.04L37.7561 75.3238C34.8857 72.5269 33.3783 68.4207 33.3783 62.84H32.3783ZM37.0583 76.04L36.37 76.7655C39.6913 79.9164 43.8243 81.48 48.6983 81.48V80.48V79.48C44.2923 79.48 40.6653 78.0836 37.7465 75.3145L37.0583 76.04Z" fill="white" mask="url(#path-1-outside-1_7_6)"/>
</svg>
