<svg width="100%" height="100%" viewBox="0 0 400 160" preserveAspectRatio="xMidYMid meet" fill="none" xmlns="http://www.w3.org/2000/svg">
<rect x="160" y="111" width="191" height="10" rx="1" fill="#0D6EFD"/>
<g filter="url(#filter0_d_1_2)">
<path d="M65.8843 105.19C62.5409 105.19 59.3959 104.368 56.4493 102.725C53.5593 101.025 51.2359 98.56 49.4793 95.33C47.7226 92.1 46.8443 88.19 46.8443 83.6V82.24C46.8443 77.65 47.7226 73.74 49.4793 70.51C51.2359 67.28 53.5593 64.8433 56.4493 63.2C59.3393 61.5 62.4843 60.65 65.8843 60.65C68.4343 60.65 70.5593 60.9617 72.2593 61.585C74.0159 62.1517 75.4326 62.8883 76.5093 63.795C77.5859 64.7017 78.4076 65.665 78.9743 66.685H80.5043V44.5H91.2143V104H80.6743V98.9H79.1443C78.1809 100.487 76.6793 101.932 74.6393 103.235C72.6559 104.538 69.7376 105.19 65.8843 105.19ZM69.1143 95.84C72.4009 95.84 75.1493 94.7917 77.3593 92.695C79.5693 90.5417 80.6743 87.425 80.6743 83.345V82.495C80.6743 78.415 79.5693 75.3267 77.3593 73.23C75.2059 71.0767 72.4576 70 69.1143 70C65.8276 70 63.0793 71.0767 60.8693 73.23C58.6593 75.3267 57.5543 78.415 57.5543 82.495V83.345C57.5543 87.425 58.6593 90.5417 60.8693 92.695C63.0793 94.7917 65.8276 95.84 69.1143 95.84ZM104.788 104V61.84H115.498V104H104.788ZM110.143 56.91C108.217 56.91 106.573 56.2867 105.213 55.04C103.91 53.7933 103.258 52.15 103.258 50.11C103.258 48.07 103.91 46.4267 105.213 45.18C106.573 43.9333 108.217 43.31 110.143 43.31C112.127 43.31 113.77 43.9333 115.073 45.18C116.377 46.4267 117.028 48.07 117.028 50.11C117.028 52.15 116.377 53.7933 115.073 55.04C113.77 56.2867 112.127 56.91 110.143 56.91ZM127.027 83.09V81.73C127.027 77.31 127.905 73.5417 129.662 70.425C131.418 67.2517 133.742 64.8433 136.632 63.2C139.578 61.5 142.78 60.65 146.237 60.65C150.09 60.65 153.008 61.33 154.992 62.69C156.975 64.05 158.42 65.4667 159.327 66.94H160.857V61.84H171.397V111.48C171.397 114.37 170.547 116.665 168.847 118.365C167.147 120.122 164.88 121 162.047 121H133.827V111.65H158.307C159.893 111.65 160.687 110.8 160.687 109.1V98.135H159.157C158.59 99.0417 157.797 99.9767 156.777 100.94C155.757 101.847 154.397 102.612 152.697 103.235C150.997 103.858 148.843 104.17 146.237 104.17C142.78 104.17 139.578 103.348 136.632 101.705C133.742 100.005 131.418 97.5967 129.662 94.48C127.905 91.3067 127.027 87.51 127.027 83.09ZM149.297 94.82C152.583 94.82 155.332 93.7717 157.542 91.675C159.752 89.5783 160.857 86.6317 160.857 82.835V81.985C160.857 78.1317 159.752 75.185 157.542 73.145C155.388 71.0483 152.64 70 149.297 70C146.01 70 143.262 71.0483 141.052 73.145C138.842 75.185 137.737 78.1317 137.737 81.985V82.835C137.737 86.6317 138.842 89.5783 141.052 91.675C143.262 93.7717 146.01 94.82 149.297 94.82ZM184.971 104V61.84H195.681V104H184.971ZM190.326 56.91C188.399 56.91 186.756 56.2867 185.396 55.04C184.092 53.7933 183.441 52.15 183.441 50.11C183.441 48.07 184.092 46.4267 185.396 45.18C186.756 43.9333 188.399 43.31 190.326 43.31C192.309 43.31 193.952 43.9333 195.256 45.18C196.559 46.4267 197.211 48.07 197.211 50.11C197.211 52.15 196.559 53.7933 195.256 55.04C193.952 56.2867 192.309 56.91 190.326 56.91ZM225.399 104C222.622 104 220.355 103.15 218.599 101.45C216.899 99.6933 216.049 97.37 216.049 94.48V70.68H205.509V61.84H216.049V48.75H226.759V61.84H238.319V70.68H226.759V92.61C226.759 94.31 227.552 95.16 229.139 95.16H237.299V104H225.399ZM254.608 104V70.68H243.898V61.84H254.608V54.02C254.608 51.13 255.458 48.835 257.158 47.135C258.915 45.3783 261.182 44.5 263.958 44.5H275.008V53.34H267.698C266.112 53.34 265.318 54.19 265.318 55.89V61.84H276.368V70.68H265.318V104H254.608ZM302.425 104.68C299.138 104.68 296.248 103.943 293.755 102.47C291.318 100.94 289.42 98.8433 288.06 96.18C286.7 93.5167 286.02 90.4567 286.02 87V61.84H296.73V86.15C296.73 89.3233 297.495 91.7033 299.025 93.29C300.611 94.8767 302.85 95.67 305.74 95.67C309.026 95.67 311.576 94.5933 313.39 92.44C315.203 90.23 316.11 87.17 316.11 83.26V61.84H326.82V104H316.28V98.475H314.75C314.07 99.8917 312.795 101.28 310.925 102.64C309.055 104 306.221 104.68 302.425 104.68ZM340.438 104V44.5H351.148V104H340.438Z" fill="white"/>
</g>
<defs>
<filter id="filter0_d_1_2" x="45.8443" y="43.31" width="306.303" height="79.69" filterUnits="userSpaceOnUse" color-interpolation-filters="sRGB">
<feFlood flood-opacity="0" result="BackgroundImageFix"/>
<feColorMatrix in="SourceAlpha" type="matrix" values="0 0 0 0 0 0 0 0 0 0 0 0 0 0 0 0 0 0 127 0" result="hardAlpha"/>
<feOffset dy="1"/>
<feGaussianBlur stdDeviation="0.5"/>
<feComposite in2="hardAlpha" operator="out"/>
<feColorMatrix type="matrix" values="0 0 0 0 0.101961 0 0 0 0 0.113725 0 0 0 0 0.180392 0 0 0 0.7 0"/>
<feBlend mode="normal" in2="BackgroundImageFix" result="effect1_dropShadow_1_2"/>
<feBlend mode="normal" in="SourceGraphic" in2="effect1_dropShadow_1_2" result="shape"/>
</filter>
</defs>
</svg>
